<svg xmlns="http://www.w3.org/2000/svg" width="144" height="35" fill="none" viewBox="0 0 144 35"><path fill="#000" d="M17.489 12.298c.354-.084.737-.14 1.148-.168.41-.028.816-.042 1.218-.042.43 0 .863.042 1.302.126a3.55 3.55 0 0 1 1.218.462c.364.224.658.532.882.924.233.392.35.891.35 1.498 0 .597-.107 1.101-.322 1.512-.215.41-.5.747-.854 1.008-.355.252-.76.434-1.218.546a5.922 5.922 0 0 1-1.414.168H19.225l-.336-.028a2.407 2.407 0 0 1-.238-.028V22h-1.162v-9.702Zm2.394.798c-.243 0-.476.005-.7.014-.224.01-.401.033-.532.07v4.06a.863.863 0 0 0 .224.042c.102 0 .21.005.322.014h.546c.317 0 .63-.028.938-.084.317-.065.602-.177.854-.336.252-.159.453-.383.602-.672.159-.29.238-.658.238-1.106 0-.383-.075-.7-.224-.952a1.588 1.588 0 0 0-.574-.616c-.234-.159-.5-.27-.798-.336a4.183 4.183 0 0 0-.896-.098Zm9.2 6.188H25.47L24.49 22h-1.148l3.71-9.954h.531L31.308 22H30.09l-1.008-2.716Zm-3.234-1.008h2.884l-1.093-2.982-.35-1.484h-.014l-.35 1.512-1.077 2.954Zm7.517-.91v-.98h.532c.121 0 .243-.005.364-.014.13-.01.252-.014.364-.014.121-.01.22-.023.294-.042.243-.037.471-.098.686-.182.215-.093.401-.21.56-.35.159-.14.285-.303.378-.49.093-.187.14-.392.14-.616 0-.308-.051-.565-.154-.77a1.226 1.226 0 0 0-.434-.49 1.534 1.534 0 0 0-.63-.266 3.234 3.234 0 0 0-.756-.084c-.504 0-.933.037-1.288.112-.355.065-.64.15-.854.252l-.308-.924c.187-.103.523-.205 1.008-.308a7.307 7.307 0 0 1 1.638-.168c.373 0 .737.042 1.092.126a2.7 2.7 0 0 1 .966.392c.29.177.518.425.686.742.177.308.266.69.266 1.148 0 .467-.154.915-.462 1.344-.308.42-.77.723-1.386.91v.056c.663.093 1.185.34 1.568.742.383.401.574.938.574 1.61 0 .532-.107.994-.322 1.386-.205.383-.48.7-.826.952a3.432 3.432 0 0 1-1.176.56 5.41 5.41 0 0 1-1.344.168c-.616 0-1.125-.037-1.526-.112a4.94 4.94 0 0 1-.98-.252l.294-1.05c.215.103.513.191.896.266.392.075.863.112 1.414.112.29 0 .574-.037.854-.112.28-.084.527-.205.742-.364a1.87 1.87 0 0 0 .532-.616c.14-.243.21-.532.21-.868 0-.588-.205-1.017-.616-1.288-.41-.28-.947-.443-1.61-.49a3.896 3.896 0 0 0-.322-.014 2.966 2.966 0 0 0-.294-.014h-.77Zm6.818-5.068c.355-.084.738-.14 1.148-.168.41-.028.817-.042 1.218-.042.43 0 .864.042 1.302.126a3.55 3.55 0 0 1 1.218.462c.364.224.658.532.882.924.233.392.35.891.35 1.498 0 .597-.107 1.101-.322 1.512-.214.41-.5.747-.854 1.008-.354.252-.76.434-1.218.546a5.922 5.922 0 0 1-1.414.168H41.92l-.336-.028a2.407 2.407 0 0 1-.238-.028V22h-1.162v-9.702Zm2.394.798c-.242 0-.476.005-.7.014-.224.01-.401.033-.532.07v4.06a.863.863 0 0 0 .224.042c.103 0 .21.005.322.014h.546c.317 0 .63-.028.938-.084.318-.065.602-.177.854-.336.252-.159.453-.383.602-.672.159-.29.238-.658.238-1.106 0-.383-.075-.7-.224-.952a1.588 1.588 0 0 0-.574-.616c-.233-.159-.5-.27-.798-.336a4.183 4.183 0 0 0-.896-.098Zm9.2 6.188h-3.612L47.186 22h-1.148l3.71-9.954h.532L54.004 22h-1.218l-1.008-2.716Zm-3.234-1.008h2.884l-1.092-2.982-.35-1.484h-.014l-.35 1.512-1.078 2.954Zm6.761-6.076h5.32v1.036h-4.158v2.94c.159-.028.355-.056.588-.084.234-.028.458-.042.672-.042.476 0 .929.047 1.358.14.43.084.808.233 1.134.448.327.215.584.509.77.882.196.364.294.826.294 1.386 0 .56-.098 1.045-.294 1.456a2.857 2.857 0 0 1-.784.994c-.326.252-.71.443-1.148.574-.43.121-.882.182-1.358.182-.158 0-.34-.005-.546-.014-.196 0-.406-.01-.63-.028-.214-.019-.43-.042-.644-.07a3.503 3.503 0 0 1-.574-.098V12.2Zm2.534 8.904c.299 0 .584-.042.854-.126.27-.084.504-.205.7-.364.206-.168.364-.378.476-.63a2.01 2.01 0 0 0 .182-.882c0-.43-.07-.775-.21-1.036a1.54 1.54 0 0 0-.532-.63 1.932 1.932 0 0 0-.784-.294 4.78 4.78 0 0 0-.91-.084c-.084 0-.182.005-.294.014l-.336.028c-.112.01-.214.023-.308.042-.093.01-.163.019-.21.028v3.85c.066.019.15.033.252.042.112.01.229.019.35.028.13.01.262.014.392.014h.378Zm4.758-4.004c0-1.633.345-2.884 1.035-3.752.691-.877 1.676-1.316 2.955-1.316.69 0 1.287.121 1.791.364s.92.588 1.246 1.036c.337.439.584.97.743 1.596.158.616.237 1.307.237 2.072 0 1.633-.35 2.889-1.05 3.766-.69.868-1.68 1.302-2.968 1.302-.68 0-1.273-.121-1.778-.364a3.48 3.48 0 0 1-1.246-1.022 4.645 4.645 0 0 1-.727-1.596 8.483 8.483 0 0 1-.239-2.086Zm1.231 0c0 .541.052 1.055.154 1.54.112.485.28.915.505 1.288.224.364.508.658.854.882.354.215.77.322 1.246.322.867 0 1.549-.327 2.043-.98.495-.663.743-1.68.743-3.052 0-.532-.056-1.04-.169-1.526a3.793 3.793 0 0 0-.503-1.288 2.535 2.535 0 0 0-.868-.882c-.346-.224-.761-.336-1.246-.336-.86 0-1.536.331-2.03.994-.486.653-.729 1.666-.729 3.038Zm14.403-3.864h-3.052V22h-1.162v-8.764h-3.052V12.2h7.266v1.036Zm5.156 6.048h-3.612L78.795 22h-1.148l3.71-9.954h.532L85.613 22h-1.218l-1.008-2.716Zm-3.234-1.008h2.884l-1.092-2.982-.35-1.484h-.014l-.35 1.512-1.078 2.954Zm12.628-.77h-4.704V22h-1.162v-9.8h1.162v4.27h4.704V12.2h1.162V22H92.78v-4.494Zm3.134-.406c0-1.633.345-2.884 1.036-3.752.69-.877 1.675-1.316 2.954-1.316.691 0 1.288.121 1.792.364a3.28 3.28 0 0 1 1.246 1.036c.336.439.583.97.742 1.596a8.3 8.3 0 0 1 .238 2.072c0 1.633-.35 2.889-1.05 3.766-.691.868-1.68 1.302-2.968 1.302-.681 0-1.274-.121-1.778-.364a3.48 3.48 0 0 1-1.246-1.022 4.643 4.643 0 0 1-.728-1.596 8.483 8.483 0 0 1-.238-2.086Zm1.232 0c0 .541.051 1.055.154 1.54.112.485.28.915.504 1.288.224.364.508.658.854.882.354.215.77.322 1.246.322.868 0 1.549-.327 2.044-.98.495-.663.742-1.68.742-3.052 0-.532-.056-1.04-.168-1.526a3.806 3.806 0 0 0-.504-1.288 2.533 2.533 0 0 0-.868-.882c-.345-.224-.761-.336-1.246-.336-.859 0-1.535.331-2.03.994-.486.653-.728 1.666-.728 3.038ZM130.6 0h-.1L117 1.4v24.7l13.5 8 13.4-8V1.4L130.6 0ZM142 12.1l-11.5-6.8v-.1h-.1l-.1-.1v.1l-11.4 6.9v-9l11.5-1.2L142 3.1v9Zm-11.6-5.3 11.5 6.7-4.5 2.6-7.1-4.2v1.4l5.9 3.5-.9.5-5-3v1.4l3.8 2.3-.8.5-3-1.8v1.4l1.9 1.1-1.8 1.1-11.4-6.7 11.4-6.8Zm-11.5 8.3 11.4 6.8v1l-7.9-4.7v1.4l8 4.8v1.1l-8-4.7v1.4l8 4.8 8.1-4.9v-5.2l3.4-2v10l-11.5 6.9-11.5-6.8v-9.9Z"/></svg>